<svg xmlns="http://www.w3.org/2000/svg" viewBox="0 0 900 550"><defs><style>.cls-1{fill:#f8f9fa;}.cls-2{fill:#adb5bd;}.cls-3{fill:#6c757d;}.cls-4{fill:#5aa9e6;}.cls-5{fill:#e9ecef;}.cls-6{fill:#7fc8f8;}.cls-7{fill:#ced4da;}.cls-8{fill:#f9f7f7;}</style></defs><title>Asset 4</title><g id="Layer_2" data-name="Layer 2"><g id="Layer_1-2" data-name="Layer 1"><path class="cls-1" d="M900,60.2V550H0V60.2C132.38,21.91,286.07,0,450,0S767.62,21.91,900,60.2Z"/><rect class="cls-2" x="250" y="100" width="50" height="450"/><rect class="cls-2" x="600" y="100" width="50" height="450"/><rect class="cls-3" x="295" y="100" width="5" height="450"/><rect class="cls-3" x="600" y="100" width="5" height="450"/><rect class="cls-2" x="360" y="100" width="50" height="450"/><rect class="cls-2" x="490" y="100" width="50" height="450"/><rect class="cls-3" x="360" y="100" width="5" height="450"/><rect class="cls-3" x="405" y="100" width="5" height="450"/><rect class="cls-3" x="490" y="100" width="5" height="450"/><rect class="cls-3" x="535" y="100" width="5" height="450"/><path class="cls-4" d="M450,100c-163.93,0-317.62,21.91-450,60.2v280C132.38,401.91,286.07,380,450,380s317.62,21.91,450,60.2v-280C767.62,121.91,613.93,100,450,100Z"/><rect class="cls-3" x="100" y="100" width="10" height="450"/><rect class="cls-3" x="790" y="100" width="10" height="450"/><path class="cls-2" d="M450,0C286.07,0,132.38,21.91,0,60.2v100C132.38,121.91,286.07,100,450,100s317.62,21.91,450,60.2V60.2C767.62,21.91,613.93,0,450,0Z"/><path class="cls-5" d="M450,350c-163.93,0-317.62,21.91-450,60.2v30C132.38,401.91,286.07,380,450,380s317.62,21.91,450,60.2v-30C767.62,371.91,613.93,350,450,350Z"/><path class="cls-3" d="M450,10C286.07,10,132.38,31.91,0,70.2v5C132.38,36.91,286.07,15,450,15S767.62,36.91,900,75.2v-5C767.62,31.91,613.93,10,450,10Z"/><path class="cls-5" d="M450,155c-163.93,0-317.62,21.91-450,60.2v20C132.38,196.91,286.07,175,450,175s317.62,21.91,450,60.2v-20C767.62,176.91,613.93,155,450,155Z"/><path class="cls-5" d="M450,225c-163.93,0-317.62,21.91-450,60.2v20C132.38,266.91,286.07,245,450,245s317.62,21.91,450,60.2v-20C767.62,246.91,613.93,225,450,225Z"/><path class="cls-6" d="M650,111.16v280l-6-.67c-2-.23-4-.44-6.05-.66-3.19-.34-6.39-.68-9.6-1s-6.27-.62-9.42-.92l-5.34-.5q-15.3-1.41-30.78-2.55-3.09-.24-6.19-.45-7.41-.53-14.85-1-3.75-.24-7.53-.45l-7.9-.44c-3.3-.18-6.61-.34-9.92-.5q-6.93-.33-13.9-.61c-3.07-.12-6.13-.24-9.21-.34l-6.73-.23-5.34-.15-5.15-.14-5.6-.13c-2.68-.06-5.36-.12-8.05-.16q-8.29-.15-16.61-.22l-7.66-.05L450,380l-8.13,0-7.66.05q-8.32.07-16.61.22c-2.69,0-5.37.1-8.05.16l-5.6.13-5.15.14-5.34.15-6.73.23c-3.08.1-6.14.22-9.21.34q-7,.27-13.9.61c-3.31.16-6.62.32-9.92.5l-7.9.44q-3.78.21-7.53.45-7.44.46-14.85,1c-2.06.15-4.13.29-6.19.45q-15.48,1.14-30.78,2.55l-5.34.5c-3.15.3-6.29.6-9.42.92s-6.41.65-9.6,1c-2,.22-4,.43-6,.66l-6,.67v-280a1797.69,1797.69,0,0,1,400,0Z"/><rect class="cls-3" x="250" y="100" width="5" height="450"/><rect class="cls-3" x="645" y="100" width="5" height="450"/><path class="cls-3" d="M450,380c-163.93,0-317.62,21.91-450,60.2v5C132.38,406.91,286.07,385,450,385s317.62,21.91,450,60.2v-5C767.62,401.91,613.93,380,450,380Z"/><path class="cls-3" d="M450,100c-163.93,0-317.62,21.91-450,60.2v5C132.38,126.91,286.07,105,450,105s317.62,21.91,450,60.2v-5C767.62,121.91,613.93,100,450,100Z"/><path class="cls-5" d="M450,0C286.07,0,132.38,21.91,0,60.2v10C132.38,31.91,286.07,10,450,10S767.62,31.91,900,70.2v-10C767.62,21.91,613.93,0,450,0Z"/><path class="cls-5" d="M450,80C286.07,80,132.38,101.91,0,140.2v20C132.38,121.91,286.07,100,450,100s317.62,21.91,450,60.2v-20C767.62,101.91,613.93,80,450,80Z"/><rect class="cls-2" y="100" width="100" height="450"/><rect class="cls-2" x="800" y="100" width="100" height="450"/><path class="cls-7" d="M650,371.16v20q-3-.36-6-.67c-2-.23-4-.44-6.05-.66-3.19-.34-6.39-.68-9.6-1s-6.27-.62-9.42-.92c-1.78-.18-3.56-.34-5.34-.5q-15.3-1.41-30.78-2.55-3.09-.24-6.19-.45-7.41-.53-14.85-1-3.75-.24-7.53-.45c-2.63-.16-5.27-.3-7.9-.44-3.3-.18-6.61-.34-9.92-.5q-6.93-.33-13.9-.61c-3.07-.12-6.13-.24-9.21-.34l-6.73-.23-5.34-.15-5.15-.14-5.6-.13c-2.68-.06-5.36-.12-8.05-.16q-8.29-.15-16.61-.22l-7.66-.05L450,380l-8.13,0-7.66.05q-8.32.07-16.61.22c-2.69,0-5.37.1-8.05.16l-5.6.13-5.15.14-5.34.15-6.73.23c-3.08.1-6.14.22-9.21.34q-7,.27-13.9.61c-3.31.16-6.62.32-9.92.5-2.63.14-5.27.28-7.9.44s-5,.29-7.53.45q-7.44.46-14.85,1-3.1.21-6.19.45-15.48,1.14-30.78,2.55c-1.78.16-3.56.32-5.34.5-3.15.3-6.29.6-9.42.92s-6.41.65-9.6,1c-2,.22-4,.43-6,.66s-4,.43-6,.67v-20a1797.69,1797.69,0,0,1,400,0Z"/><path class="cls-8" d="M0,205.2q48.2-13.94,100-24.9v10Q48.27,201.22,0,215.2Z"/><path class="cls-8" d="M900,205.2v10q-48.19-13.94-100-24.9v-10Q851.74,191.22,900,205.2Z"/><path class="cls-8" d="M0,275.2q48.2-13.93,100-24.9v10Q48.27,271.22,0,285.2Z"/><path class="cls-8" d="M900,275.2v10q-48.19-13.93-100-24.9v-10Q851.74,261.22,900,275.2Z"/><path class="cls-8" d="M0,345.2q48.2-13.93,100-24.9v10Q48.27,341.22,0,355.2Z"/><path class="cls-8" d="M900,345.2v10q-48.19-13.93-100-24.9v-10Q851.74,331.22,900,345.2Z"/><path class="cls-8" d="M0,415.2q48.2-13.93,100-24.9v10Q48.27,411.22,0,425.2Z"/><path class="cls-8" d="M900,415.2v10q-48.19-13.93-100-24.9v-10Q851.74,401.22,900,415.2Z"/><path class="cls-8" d="M0,485.2q48.2-13.93,100-24.9v10Q48.27,481.22,0,495.2Z"/><path class="cls-8" d="M900,485.2v10q-48.19-13.93-100-24.9v-10Q851.74,471.22,900,485.2Z"/><path class="cls-3" d="M250,371.15v20l-5,.58v-20Z"/><path class="cls-3" d="M650,371.15v20l5,.58v-20Z"/></g></g></svg>