<svg xmlns="http://www.w3.org/2000/svg" viewBox="0 0 900.25 450"><defs><style>.cls-1{fill:#ffdd93;}.cls-2{fill:#6c757d;}.cls-3{fill:#dee2e6;}.cls-4{fill:#fff;}.cls-5{fill:#e76f51;}</style></defs><title>Asset 9</title><g id="Layer_2" data-name="Layer 2"><g id="Layer_1-2" data-name="Layer 1"><rect class="cls-1" x="0.25" y="100" width="900" height="250"/><rect class="cls-2" x="50" y="145" width="800" height="20"/><rect class="cls-1" y="350" width="900" height="100"/><rect class="cls-3" x="150" y="330" width="100" height="120"/><rect class="cls-2" x="150" y="330" width="100" height="5"/><rect class="cls-2" x="150" y="330" width="5" height="120"/><rect class="cls-3" x="400" y="330" width="100" height="120"/><rect class="cls-2" x="400" y="330" width="100" height="5"/><rect class="cls-2" x="400" y="330" width="5" height="120"/><rect class="cls-2" x="495" y="330" width="5" height="120"/><rect class="cls-3" x="650" y="330" width="100" height="120"/><rect class="cls-2" x="650" y="330" width="100" height="5"/><rect class="cls-2" x="745" y="330" width="5" height="120"/><rect class="cls-2" x="248" y="100" width="15" height="40"/><rect class="cls-4" x="243" y="100" width="15" height="40"/><rect class="cls-2" x="638" y="100" width="15" height="40"/><rect class="cls-4" x="643" y="100" width="15" height="40"/><polygon class="cls-4" points="850 64.29 850 450 800 450 800 0 850 64.29"/><polygon class="cls-2" points="805 6.43 805 450 800 450 800 0 805 6.43"/><polygon class="cls-4" points="100 0 100 450 50 450 50 64.29 100 0"/><polygon class="cls-2" points="100 0 100 450 95 450 95 6.43 100 0"/><polygon class="cls-5" points="900 100 0 100 100 0 800 0 900 100"/><rect class="cls-4" x="50" y="140" width="800" height="20"/></g></g></svg>