<svg xmlns="http://www.w3.org/2000/svg" viewBox="0 0 600 525"><defs><style>.cls-1{fill:#fff;}.cls-2{fill:#d7e3fc;}.cls-3{fill:#aebf8f;}.cls-4{fill:#6c757d;}.cls-5{fill:#edf2fb;}.cls-6{fill:#e7eefd;}.cls-7{fill:#fcd5a5;}.cls-8{fill:gray;}</style></defs><title>Asset 3_1</title><g id="Layer_2" data-name="Layer 2"><g id="Layer_1-2" data-name="Layer 1"><polygon class="cls-1" points="365 25 365 224.67 300 190 235 224.67 235 25 365 25"/><polygon class="cls-2" points="575 25 575 525 25 525 25 25 235 25 235 224.67 300 190 365 224.67 365 25 575 25"/><rect class="cls-3" width="600" height="25"/><rect class="cls-3" x="575" y="25" width="25" height="500"/><rect class="cls-3" y="25" width="25" height="500"/><rect class="cls-4" x="25" y="150" width="210" height="5"/><rect class="cls-4" x="365" y="150" width="210" height="5"/><rect class="cls-4" x="25" y="275" width="550" height="5"/><rect class="cls-4" x="180" y="280" width="240" height="5"/><rect class="cls-4" x="25" y="400" width="550" height="5"/><rect class="cls-5" x="25" y="475" width="100" height="50"/><rect class="cls-6" x="180" y="475" width="50" height="50"/><rect class="cls-6" x="370" y="475" width="50" height="50"/><rect class="cls-5" x="475" y="475" width="100" height="50"/><rect class="cls-5" x="25" y="350" width="550" height="50"/><rect class="cls-5" x="25" y="225" width="550" height="50"/><rect class="cls-5" x="25" y="100" width="210" height="50"/><rect class="cls-5" x="365" y="100" width="210" height="50"/><rect class="cls-7" x="180" y="25" width="50" height="500"/><rect class="cls-7" x="370" y="25" width="50" height="500"/><rect class="cls-4" x="25" y="25" width="10" height="500"/><rect class="cls-4" x="565" y="25" width="10" height="500"/><rect class="cls-3" x="100" y="25" width="25" height="500"/><rect class="cls-3" x="475" y="25" width="25" height="500"/><rect class="cls-4" x="25" y="25" width="550" height="15"/><rect class="cls-4" x="125" y="25" width="5" height="500"/><rect class="cls-4" x="230" y="25" width="5" height="500"/><rect class="cls-4" x="365" y="25" width="5" height="500"/><polygon class="cls-4" points="450 270 150 270 168.97 259.88 230 227.33 235 224.67 300 190 365 224.67 370 227.33 432.24 260.53 450 270"/><path class="cls-4" d="M305,265c-52.86,0-104.64-2.29-155-6.66V275H450V259.18C402.8,263,354.36,265,305,265Z"/><rect class="cls-4" x="470" y="25" width="5" height="500"/><polygon class="cls-5" points="300 195 150 275 450 275 300 195"/><path class="cls-3" d="M305,270c-52.86,0-104.64-2.29-155-6.66V280H450V264.18C402.8,268,354.36,270,305,270Z"/><circle class="cls-1" cx="299.5" cy="240.5" r="17.5"/><path class="cls-8" d="M299.5,228a17.48,17.48,0,0,0-17.3,15,17.21,17.21,0,0,1-.2-2.5,17.5,17.5,0,0,1,35,0,17.21,17.21,0,0,1-.2,2.5A17.48,17.48,0,0,0,299.5,228Z"/></g></g></svg>