<svg xmlns="http://www.w3.org/2000/svg" viewBox="0 0 700 500"><defs><style>.cls-1{fill:#ffdd93;}.cls-2{fill:#e76f51;}.cls-3{fill:#adb5bd;}.cls-4{fill:#fff;}.cls-5{fill:gray;}</style></defs><title>Asset 2</title><g id="Layer_2" data-name="Layer 2"><g id="Layer_1-2" data-name="Layer 1"><rect class="cls-1" y="100" width="700" height="400"/><polygon class="cls-2" points="700 100 0 100 100 0 600 0 700 100"/><rect class="cls-3" x="25" y="125" width="120" height="100"/><rect class="cls-4" x="25" y="140" width="120" height="15"/><rect class="cls-4" x="40" y="125" width="5" height="100"/><rect class="cls-5" x="25" y="125" width="5" height="100"/><rect class="cls-4" x="125" y="125" width="5" height="100"/><rect class="cls-5" x="25" y="125" width="120" height="5"/><rect class="cls-3" x="160" y="125" width="120" height="100"/><rect class="cls-4" x="160" y="140" width="120" height="15"/><rect class="cls-4" x="175" y="125" width="5" height="100"/><rect class="cls-5" x="160" y="125" width="5" height="100"/><rect class="cls-4" x="260" y="125" width="5" height="100"/><rect class="cls-5" x="160" y="125" width="120" height="5"/><rect class="cls-3" x="25" y="245" width="120" height="100"/><rect class="cls-4" x="25" y="260" width="120" height="15"/><rect class="cls-4" x="40" y="245" width="5" height="100"/><rect class="cls-5" x="25" y="245" width="5" height="100"/><rect class="cls-4" x="125" y="245" width="5" height="100"/><rect class="cls-5" x="25" y="245" width="120" height="5"/><rect class="cls-3" x="160" y="245" width="120" height="100"/><rect class="cls-4" x="160" y="260" width="120" height="15"/><rect class="cls-4" x="175" y="245" width="5" height="100"/><rect class="cls-5" x="160" y="245" width="5" height="100"/><rect class="cls-4" x="260" y="245" width="5" height="100"/><rect class="cls-5" x="160" y="245" width="120" height="5"/><rect class="cls-3" x="555" y="125" width="120" height="100" transform="translate(1230 350) rotate(180)"/><rect class="cls-4" x="555" y="140" width="120" height="15" transform="translate(1230 295) rotate(180)"/><rect class="cls-4" x="655" y="125" width="5" height="100" transform="translate(1315 350) rotate(180)"/><rect class="cls-5" x="670" y="125" width="5" height="100" transform="translate(1345 350) rotate(180)"/><rect class="cls-4" x="570" y="125" width="5" height="100" transform="translate(1145 350) rotate(180)"/><rect class="cls-5" x="555" y="125" width="120" height="5" transform="translate(1230 255) rotate(180)"/><rect class="cls-3" x="420" y="125" width="120" height="100" transform="translate(960 350) rotate(180)"/><rect class="cls-4" x="420" y="140" width="120" height="15" transform="translate(960 295) rotate(180)"/><rect class="cls-4" x="520" y="125" width="5" height="100" transform="translate(1045 350) rotate(180)"/><rect class="cls-5" x="535" y="125" width="5" height="100" transform="translate(1075 350) rotate(180)"/><rect class="cls-4" x="435" y="125" width="5" height="100" transform="translate(875 350) rotate(180)"/><rect class="cls-5" x="420" y="125" width="120" height="5" transform="translate(960 255) rotate(180)"/><rect class="cls-3" x="555" y="245" width="120" height="100" transform="translate(1230 590) rotate(180)"/><rect class="cls-4" x="555" y="260" width="120" height="15" transform="translate(1230 535) rotate(180)"/><rect class="cls-4" x="655" y="245" width="5" height="100" transform="translate(1315 590) rotate(180)"/><rect class="cls-5" x="670" y="245" width="5" height="100" transform="translate(1345 590) rotate(180)"/><rect class="cls-4" x="570" y="245" width="5" height="100" transform="translate(1145 590) rotate(180)"/><rect class="cls-5" x="555" y="245" width="120" height="5" transform="translate(1230 495) rotate(180)"/><rect class="cls-3" x="420" y="245" width="120" height="100" transform="translate(960 590) rotate(180)"/><rect class="cls-4" x="420" y="260" width="120" height="15" transform="translate(960 535) rotate(180)"/><rect class="cls-4" x="520" y="245" width="5" height="100" transform="translate(1045 590) rotate(180)"/><rect class="cls-5" x="535" y="245" width="5" height="100" transform="translate(1075 590) rotate(180)"/><rect class="cls-4" x="435" y="245" width="5" height="100" transform="translate(875 590) rotate(180)"/><rect class="cls-5" x="420" y="245" width="120" height="5" transform="translate(960 495) rotate(180)"/><circle class="cls-3" cx="350" cy="195" r="40"/><path class="cls-5" d="M350,165a40,40,0,0,1,39.68,35,41.3,41.3,0,0,0,.32-5,40,40,0,0,0-80,0,41.3,41.3,0,0,0,.32,5A40,40,0,0,1,350,165Z"/><rect class="cls-3" x="307.5" y="267" width="25" height="25"/><rect class="cls-3" x="307.5" y="297" width="25" height="25"/><rect class="cls-3" x="337.5" y="267" width="25" height="25"/><rect class="cls-3" x="337.5" y="297" width="25" height="25"/><rect class="cls-3" x="367.5" y="267" width="25" height="25"/><rect class="cls-3" x="367.5" y="297" width="25" height="25"/><rect class="cls-3" x="305" y="400" width="90" height="100"/><rect class="cls-5" x="305" y="400" width="5" height="100"/><rect class="cls-5" x="390" y="400" width="5" height="100"/><rect class="cls-5" x="305" y="400" width="90" height="5"/><rect class="cls-3" x="175" y="400" width="90" height="100"/><rect class="cls-5" x="175" y="400" width="5" height="100"/><rect class="cls-5" x="175" y="400" width="90" height="5"/><rect class="cls-3" x="45" y="400" width="90" height="100"/><rect class="cls-5" x="45" y="400" width="5" height="100"/><rect class="cls-5" x="45" y="400" width="90" height="5"/><rect class="cls-3" x="435" y="400" width="90" height="100"/><rect class="cls-5" x="520" y="400" width="5" height="100"/><rect class="cls-5" x="435" y="400" width="90" height="5"/><rect class="cls-3" x="565" y="400" width="90" height="100"/><rect class="cls-5" x="650" y="400" width="5" height="100"/><rect class="cls-5" x="565" y="400" width="90" height="5"/></g></g></svg>