<?xml version="1.0" encoding="utf-8"?>
<!-- Generator: Adobe Illustrator 22.0.1, SVG Export Plug-In . SVG Version: 6.00 Build 0)  -->
<svg version="1.1" id="Layer_2" xmlns="http://www.w3.org/2000/svg" xmlns:xlink="http://www.w3.org/1999/xlink" x="0px" y="0px"
	 viewBox="0 0 788.8 435" style="enable-background:new 0 0 788.8 435;" xml:space="preserve">
<style type="text/css">
	.st0{fill:#0067AC;}
	.st1{fill:#DE412E;}
</style>
<polygon class="st0" points="788.8,0 751.5,80 694.3,80 603.4,275 515.1,275 606,80 476.5,80 513.8,0 "/>
<polygon class="st0" points="255.1,160 217.8,240 179.2,240 88.3,435 0,435 90.9,240 2.7,240 40,160 "/>
<path class="st1" d="M547.5,122.6L530.1,160l-53.6,115l-25.3,54.2c-7.3,15.7-23.1,25.8-40.4,25.8H164.2l9.6-20.6h0l27.7-59.4h186.7
	l53.6-115h-98.5l-37.3,80h-88.3l37.3-80L290,85.2l2.4-5.2h228C542.3,80,556.8,102.8,547.5,122.6z"/>
</svg>
